<svg xmlns="http://www.w3.org/2000/svg" id="Layer_1" width="6in" height="5.994in" viewBox="0 0 432 431.58"><path id="path5-8" d="M115.761,243.128c-6.671,7.719-13.496,14.774-18.23,23.839-.817,1.907-2.697,2.499-4.592,1.746-18.144-5.809-35.512-13.441-51.084-24.432-3.877-2.641-.912-4.202,2.539-5.088,29.542-10.382,60.67-16.708,88.275-31.942,2.309-1.222,3.993-3.134,5.196-5.421,4.814-8.464,9.55-17.093,14.585-25.305,1.23-1.405,3.841-1.419,4.767-3.287,3.982-6.13,5.385-14.978,11.914-18.995,1.388-.788,2.32-2.07,2.987-3.498,5.002-9.802,9.808-19.896,15.054-29.535,1.837-3.038,4.237-5.742,7.46-7.325,10.071-4.001,14.017-15.866,21.918-22.675,2.336-2.065,5.687-2.034,8.514-2.459,9.614-4.001,17.942-10.789,26.716-16.179,2.131-1.489,4.661-.981,7.114-1.122,2.198-.552,4.548-1.51,6.89-1.272,2.658.127,5.252,1.028,7.674,2.2,9.985,5.083,19.485,10.681,30.368,13.899,3.309,1.018,7.161,1.854,8.489,5.434,2.899,6.831,8.228,12.106,13.557,16.844,8.597,7.227,8.106,6.288,7.851,17.628-.066,8.068-.233,16.403-.449,24.574-.108,1.585-.662,3.004-1.868,4.06-4.052,2.658-7.524,6.172-11.506,8.932-2.394.64-5.218.069-7.665-.452-1.264-.449-2.092-1.51-2.563-2.76-1.208-4.456-5.44-10.802.114-13.798,3.398-1.65,1.009,1.192.701,3.07-1.206,5.233,2.635,10.773,8.04,7.981,2.192-1.478,3.298-4.157,4.955-6.202.396-.671.906-1.566.817-2.383-.535-2.838-2.367-5.746-3.439-8.533-1.594-2.896-2.236-6.696-4.545-8.993-1.782-.529-4.323,0-6.224-.923-3.495-1.248-7.854-3.443-11.188-.72-1.679,1.48-3.583,2.222-5.787,2.264-6.064.79-6.859,13.696-8.35,18.498-.399,1.968.923,4.068.826,6.272.058,3.099-.931,6.119-1.12,9.203-.418,5.135,2.115,9.556,3.448,14.632,1.566,5.482,2.314,11.21,3.134,16.821.349,1.943,2.902,2.549,3.664,4.276.324.598.549,1.258.743,1.94,2.441,9.882,4.864,20.181,7.968,29.872.576,1.483,1.535,2.483,2.863,3.375,24.138,15.414,50.466,29.199,79.368,33.14,6.715.765-2.009,5.016-4.21,5.934-13.05,5.908-27.214,8.478-41.445,9.503-1.771.378-1.361,1.896-.959,3.392,12.288,35.586,7.929,77.34-16.149,107.3-4.891,6.097-10.575,11.517-17.094,16.051-6.668,4.424,2.738,1.549,5.487,1.582,12.169-1.3,23.723,1.809,34.761,6.579,9.384,4.115,22.83,8.483,30.548-.727,4.024-4.673,4.193-13.005-1.782-16.503-6.127-4.204-15.256,2.076-12.26,9.314,2.611,7.031,14.53,4.892,11.878-3.295-.452-2.311,1.034.077,1.272,1.211.405,11.49-16.847,8.644-14.669-2.242,1.483-9.564,14.696-9.755,18.371-2.034,4.575,8.721-2.189,18.49-11.077,20.344-12.743,2.53-23.667-4.98-35.664-7.652-9.525-2.142-19.76-1.926-29.171.56-.38.135-1.483.566-.396.735,1.654.066,4.135.214,5.933.441,13.671,2.007,26.608,8.264,40.303,9.816-9.181,1.668-18.9-.825-27.794-3.306-7.69-1.882-15.813-3.838-23.742-2.401-.424.143-.424.307.008.468,5.806,1.624,13.275,2.164,18.141,5.844-65.489.727-131.491,0-197.144.249-1.172,0-1.801-.147-.673-.782,5.504-2.985,12.003-3.896,18.03-5.426.277-.217.094-.457-.424-.618-8.536-.931-17.349.815-25.593,3.018-8.652,2.52-18.019,4.639-27.237,2.991.496-.671,2.328-.579,3.223-.765,8.175-.671,15.943-3.271,23.855-5.775,6.59-2.037,13.422-3.639,20.339-3.689.779-.031.989-.147.488-.365-16.126-5.701-33.015-.928-48.579,4.411-13.117,4.165-31.674-.685-34.265-16.295-2.023-8.505,4.548-17.698,13.391-17.429,11.385,0,14.378,16.478,2.738,18.815-4.794,1.07-10.356-4.329-8.073-8.954.164-.153.269.241.33.976.075,1.457.31,3.073,1.045,4.287,1.716,3.215,6.967,3.586,10.035,1.256,4.816-3.401,3.797-10.911-1.02-13.785-7.621-4.586-16.733,2.184-17.063,10.47-.524,13.177,13.011,21.618,25.047,19.543,10.135-1.064,19.164-6.325,29.049-8.208,7.912-1.64,16.043-1.798,24.013-.307,2.02.418,3.012.333,1.278-1.064-7.178-5.434-13.895-11.617-19.241-18.696-32.519-43.632-31.574-112.546,9.841-150.339,1.222-1.156,2.478-1.843,4.168-1.696,6.598.754,13.247,1.652,19.837,2.464,3.716.405,1.76,1.812.011,3.433-9.359,8.854-15.833,20.187-19.674,32.489,5.401-10.392,12.399-21.752,21.705-29.964,2.106-1.721,4.127-3.961,6.854-4.601.809-.219,2.353-.355,2.846-.532.341-.373-.263-.307-.884-.502-31.019-6.083-61.487-8.549-92.252-5.567,17.088-.502,35.988-.629,53.753,2.624l.055.217ZM179.502,372.989c-3.833-5.313-5.942-12.571-9.517-18.069-1.28-.984-3.015-1.089-4.437-1.682-1.3-.436-2.735-1.164-3.847-.643-3.054,2.417-5.692,6.283-8.489,9.21-.632.704-1.297,1.369-1.882,1.325-.352-.027-.676-.319-.97-.74-3.384-5.989-5.731-12.083-8.419-18.399-1.993-3.281-5.174-5.221-8.311-7.66-.917-.727-1.228-.516-.906.635,3.794,15.494,13.574,27.217,23.725,37.643-12.091-9.855-20.968-22.949-24.679-38.397-1.485-4.365-6.604-7.219-9.389-10.905-1.768-1.386.538,5.022.51,5.715,6.091,22.26,17.504,42.759,37.053,55.797,1.793.341,3.47-1.137,4.886-2.015,3.134-2.065,6.676-4.115,10.146-5.407.128,0,.38.027.507.027.03,2.83,1.444,6.194,2.267,9.179,1.178,2.888,1.247,6.545,3.323,8.871,6.962,2.281,14.561,4.304,21.96,4.789,2.04-.698,2.791-3.157,4.024-4.761,2.378-3.633,4.786-7.425,7.255-10.985.158-.085.471-.257.626-.344,1.491.679,2.855,3.951,4.096,5.392,2.799,3.459,4.395,8.087,7.965,10.686,3.459.582,6.959-1.081,10.276-1.579,10.079-2.61,12.147-.74,14.943-11.992.776-2.893,2.577-5.696,2.627-8.697-.006-.848-1.242-1.769-1.25-1.893,5.155,1.457,10.307,5.307,15.212,7.89,1.319.579,2.694.441,3.888-.502,17.753-13.646,30.052-31.127,36.302-52.753.953-3.617,1.973-7.624,2.439-11.185-.053-.257-.263-.23-.607.042-3.955,3.774-7.477,7.762-9.334,12.701-1.818,7.809-4.376,15.536-10.013,21.633-.094,0,.704-1.288,1.186-2.153,3.786-6.645,7.023-13.605,8.566-21.211.036-.429-.08-.627-.377-.543-2.832,2.217-7.848,5.299-9.894,7.815-3.858,6.64-6.169,14.23-9.63,21.156-.144.114-.435.341-.579.455-2.857-1.309-5.762-5.138-8.109-7.597-2.669-3.142-5.928-3.07-9.514-1.161-.729.252-1.333.252-1.657-.18-1.424-9.567-.46-19.682-2.888-29.26-.244-1.119-.299-1.131-.233.031.499,9.608.493,19.388-.058,28.819-2.566,6.585-6.366,12.82-9.6,19.249-.551.873-1.189,1.333-2.026.566-3.52-3.842-6.737-8.108-10.179-12.03-.881-.901-1.915-1.172-3.184-1.081-13.045,1.513-26.136,1.51-39.192.027-1.269-.089-2.339.166-3.234,1.053-3.83,4.196-7.106,9.099-11.13,13.153l-.25-.034ZM270.903,226.625c8.563.884,17.991,2.378,26.555,3.099-5.839-2.811-13.552-3.725-19.665-6-.006-.069.657,0,1.433.114,5.681.693,11.642,1.605,17.287,2.195-4.833-2.882-12.651-3.779-18.288-5.855-.094-.047-.286-.143-.38-.194,5.667.447,12.257,1.912,17.986,2.264.114-.066.338-.199.452-.264.089-.322-.809-.748-1.713-.934-5.246-1.591-10.922-2.541-15.971-4.509-.18-.246.759-.286,1.696-.106,4.789.593,9.863,1.69,14.585,2.023-4.481-2.94-11.199-3.298-16.027-5.587,1.416-.989,16.949,3.401,15.087.992-6.374-2.306-14.228-3.489-20.4-5.897.183-.108,1.338.058,2.206.203,5.315.629,11.878,2.187,16.667,2.375-5.883-2.805-13.909-4.384-19.566-6.471,5.878.666,13.308,2.322,18.765,2.674-7.103-2.893-15.317-4.765-22.597-7.092,5.947.775,12.798,1.976,18.917,2.88.252-.039,1.552.188.881-.302-13.937-3.922-28.179-6.183-42.423-9.425-1.347-.217-2.345.034-2.757,1.341-2.056,8.444-3.666,16.95-5.82,25.394-.435,1.782-1.037,4.196,1.264,4.874,19.502,4.334,39.328,7.058,59.154,9.317-8.012-3.326-18.524-4.797-27.334-7.089l.006-.019ZM192.721,303.291c-5.124-3.858-9.952-6.397-15.561-10.395-1.46-1.047-3.428-2.345-3.902-4.007-.468-1.491.075-3.556.491-5.31,2.336-9.785,6.321-19.859,11.975-28.379.116-.499.496-.568-.302-1.291-2.555-1.471-3.428,1.369-4.406,3.123-17.731,32.66,4.534,41.157-31.413,18.222-4.007-2.494-6.823-5.609-8.358.798-3.323,10.11-3.974,21.25,2.167,30.759,9.201,13.41,37.471,2.755,49.291-3.295l.02-.226ZM276.227,305.605c3.42-5.022,5.332-11.579,4.994-17.728-.066-1.779.061-4.215-1.361-5.321-2.425-1.457-6.421-2.336-9.353-2.164-1.532.175-3.021.962-4.337,1.832-10.016,6.738-20.369,12.965-30.266,19.828-1.948,1.33,6.709,3.581,7.787,4.356,13.427,4.831,37.762,13.299,44.153-5.058,1.898-5.363,2.974-11.368,1.688-16.958-.587-1.336-2.838-1.352-4.229-1.441-1.413,0-3.187-.219-3.306,1.571.202,7.605-.033,15.38-5.742,21.098l-.028-.015ZM203.535,175.987c-3.683-.288-7.302,1.928-7.865,5.797-2.503,10.173-4.905,20.309-7.167,30.57-1.2,4.027.901,8.118,5.132,8.915,10.736,2.552,21.334,4.897,32.081,7.233,1.763.388,3.761.344,5.349-.505,1.763-.859,3.029-2.613,3.531-4.54,2.494-10.484,4.8-20.849,6.97-31.452,1.383-5.468-2.843-9.007-7.92-9.552-9.661-2.045-20.289-4.528-29.645-6.432l-.465-.034ZM140.501,204.875c13.577,2.403,27.952,3.932,41.639,6.889,1.699.447,3.833.529,4.19-1.616,2.081-9.07,4.359-17.98,6.427-27.029.366-1.917-1.563-2.237-3.043-2.372-10.567-1.355-21.023-2.835-31.66-2.181,6.055.767,13.948,1.804,20.272,3.273-7.56-.114-16.154-1.153-23.911-.441,5.277,1.571,12.679,1.608,18.535,3.35-5.878.077-13.79-.571-20.117-.027-.105.027-.313.077-.418.106,5.368,1.319,12.014,1.436,17.365,3.162-6.075.241-13.203-.901-19.288.203,4.825,1.296,11.282,1.433,16.01,2.982-5.565.336-12.269-.156-17.911.185-.064.05-.188.147-.252.196,5.11,1.369,11.329,1.671,16.517,2.827-.931.283-22.739-.555-16.478.834,4.747,1.066,10.309,1.388,14.771,2.713-5.734.246-12.288,0-18.144.095-.424,0-.565.05-.363.116,6.313,1.267,14.297,2.264,20.109,3.85-6.834-.206-15.381-1.359-21.711-.476.479.164,1.951.388,2.94.571,7.103,1.344,15.542,2.245,22.015,4.143-9.012-.604-18.318-2.103-27.389-1.436l-.105.081ZM303.347,271.434c-1.483.344-1.275,6.815-3.575,7.066-31.782-2.951-62.507-13.111-92.457-24.027-26.682-9.539-54.121-16.583-82.22-19.709-10.179-1.203-20.616-1.632-30.928-1.917-2.042-.111-8.026-.027-2.339-1.912,14.297-4.517,28.262-10.123,41.379-17.424,7-3.575,15.242-1.388,22.789-2.007.105,0,.313-.042.418-.058-4.282-.947-9.908-1.497-14.436-2.087-2.469-.54-5.036-.907-7.33.447-22.002,12.053-46.007,19.047-69.887,26.177-.493.156-.823.299-.829.391,2.58.336,5.972-.402,8.755-.363,21.949-1.081,43.925.388,65.639,3.673,55.745,8.05,105.795,37.03,162.275,42.083,3.647.706,2.993-2.489,2.962-5.199-.072-1.668.166-3.359-.083-4.947l-.133-.187ZM199.846,343.522c4.703-.452,9.58-2.051,14.331-1.774,4.595.138,9.628,1.214,14.142,1.277-4.376-9.512-9.381-19.526-14.239-28.786-5.008,9.411-9.517,19.549-14.333,29.149l.1.134ZM211.14,152.113c-8.807-2.857-18.501-3.48-27.807-4.065-4.65-.499,5.221-16.678,6.355-19.433,7.76-17.135,23.786-7.449,37.998-5.881-7.519-2.93-15.597-4.781-23.581-6.363-5.637-1.643-11.135,1.139-13.951,6.111-5.083,8.697-9.423,18.053-14.106,26.915-.305.604-.554,1.361-.346,1.817.141.355.518.552,1.017.579,11.368-1.419,23.071-1.161,34.414.357l.008-.038ZM266.827,422.574c30.618-6.962,43.862-41.353,46.686-69.513.15-1.993.402-4.437.247-6.327-.044,0-.119.344-.208.87-5.083,29.836-16.606,62.265-46.727,74.918l.003.053ZM238.071,97.914c-5.116-2.893-11.969-7.034-18.058-5.304-7.05,5.249-10.822,13.585-17.376,20.01-.995,1.386,1.455,1.058,2.661,1.494,1.142.235,2.27.482,3.389.743,6.41,1.388,12.629,3.597,18.939,5.043.103-.15-1.012-.828-1.677-1.158-5.249-2.658-11.055-4.26-16.464-6.447-.413-.275-.61-.598-.582-1.008,1.746-3.811,4.972-6.989,7.133-10.559,1.377-2.118,3.245-4.057,5.304-4.869,5.243-2.269,11.529.945,16.711,2.106l.019-.05ZM106.217,367.065c-4.476-22.586-3.517-45.708,1.693-68.199.23-1.253-.247.166-.623,1.073-8.627,21.613-9.007,44.904-1.1,67.13l.03-.004ZM369.773,276.667c-15.688,2.74-32.056,5.13-48.141,3.221-5.152-2.65-9.154-7.38-13.907-10.75-1.979-1.87-2.666-1.005-.707.812,3.708,3.866,7.175,8.001,10.949,11.781,1.009.798,2.137,1.045,3.431,1.1,16.406.166,32.663-.313,48.368-6.053l.006-.111ZM245.895,98.657c-.851-1.605-5.515-3.75-7.322-5.183-1.02-.804-3.184-1.505-2.702-3.007,4.174-3.935,9.47-7.026,14.098-10.595,5.531-4.315,7.502-2.962,12.485,1.338,2.115,1.674,4.706,4.307,6.626,5.751-1.197-2.001-3.492-4.631-5.243-6.476-2.516-2.164-5.113-5.905-8.677-6.024-9.19,4.229-16.999,11.368-26.037,15.941-.114.13-.338.386-.449.516.025.421,1.341.801,2.101,1.195,4.941,2.139,9.996,4.639,14.918,6.606l.202-.061ZM149.791,419.03c-16.398-13.43-25.18-32.937-30.798-53.073-.396-1.106-.349-.252-.358.815.723,18.751,15.192,45.583,31.186,52.348l-.03-.089ZM113.353,268.675c-11.642,16.392-17.229,36.025-16.276,56.318.066.066.188-.942.299-1.637,2.846-18.886,7.582-37.399,16.01-54.667l-.033-.014ZM307.052,403.801c13.707-13.103,20.94-30.8,22.409-49.815.042-1.291-.183.027-.468,1.018-4.559,17.401-11.7,33.901-21.977,48.778l.036.019ZM316.76,285.671c5.836,15.644,8.624,32.38,8.962,49.05.036.055.119-.892.169-1.338,1.638-15.652-.333-31.227-5.36-46.211-.535-1.643-2.209-1.756-3.65-1.66l-.122.16ZM161.89,173.139c4.099-3.503,5.684-9.789,10.007-12.968,9.503-5.479,21.043-5.056,31.674-5.582,2.225-.077,1.084-.164-.502-.346-10.855-.828-23.59-1.832-33.4,3.797-4.271,3.489-5.26,10.342-7.835,15.065l.055.034ZM225.523,425.421c16.054,1.131,28.176-13.624,30.881-28.539.252-1.463.141-1.066-.455.264-5.568,13.214-15.478,25.876-30.393,28.229l-.033.046ZM254.292,137.478c8.051,4.482,16.24,9.673,23.041,15.846,2.68,2.441,4.345,5.878,4.024,9.575.615-2.935,2.356-6.313-.111-8.857-7.859-7.291-17.102-12.571-26.946-16.583l-.008.019ZM156.963,395.245c3.309,10.831,8.921,22.725,20.078,27.02-8.66-7.33-15.126-16.895-20.059-27.031l-.019.011ZM162.522,274.166c3.719-8.01,8.76-15.512,14.935-21.913-.033-.183-.1-.549-.133-.735-3.209-1.989-5.036,3.018-6.87,4.935-3.744,5.265-6.56,11.424-7.968,17.698l.036.015ZM288.443,112.31c.715,5.429,2.034,10.866,2.303,16.406.13.222.388.668.518.889,4.722.859,8.763-3.988,10.481-7.987.158-.441.493-1.294.333-1.325-.108-.124-.682.579-.995.889-10.808,13.108-8.771-1.43-12.593-8.888l-.047.015ZM288.803,83.899c3.475,2.353,7.566,4.476,11.526,6.019,2.289.928,5.141,1.558,6.804,3.321,2.699,2.663,2.976,7.15,4.235,10.639.585,2.322.529.857.515-.671-.319-3.985-.901-8.83-3.425-11.984-6.166-2.915-13.369-4.47-19.638-7.355l-.017.031ZM252.147,420.634c9.204-4.287,14.314-14.2,16.442-23.596-4.013,8.589-9.644,16.935-16.489,23.562l.047.034ZM306.321,241.584c-2.83-3.268-6.266-3.087-10.32-3.321-6.158-.413-12.307-.936-18.432-1.705,9.137,2.962,19.283,3.459,28.711,5.104l.042-.078ZM152.659,323.444c-1.289,2.893-1.225,5.329-1.538,7.674-.632,4.72-.346,9.478-.366,14.222-.006,1.1.515,1.782,1.618,1.724,1.397-.074.743-1.156.707-1.83-.089-1.71-.385-3.414-.402-5.125-.055-5.326-.019-10.65-.019-16.667h0ZM326.831,113.829c-4.323-4.395-8.854-8.549-12.795-14.12v11.064c.92-.608.928-1.317,1.089-1.989.815-3.433.851-3.39,3.564-1.177,2.647,2.156,5.423,4.154,8.142,6.225h0ZM271.87,335.008c0-3.007.166-6.024-.042-9.015-.272-3.924-.817-7.83-1.76-11.662-.213-.87-.618-1.529-1.646-1.349-.834.143-.806.817-.654,1.413,1.743,6.79,2.962,13.679,4.102,20.613h0ZM187.741,419.811c-4.703-6.587-8.666-13.563-12.407-20.677,1.763,8.314,5.446,15.491,12.407,20.677ZM287.118,132.796c2.389-8.61-.707-16.641-2.83-24.775,1.577,8.192,2.27,16.475,2.83,24.775ZM264.338,138.186c5.249,3.731,10.57,7.364,15.716,11.233,2.029,1.524,2.5.709,2.755-1.18.078-.574.011-1.166.011-1.809-2.544.762-2.563.796-4.872-.654-4.395-2.766-8.768-5.576-13.61-7.587v-.003ZM270.349,85.226c.133-.085.266-.175.402-.261-.551-.889-1.084-1.793-1.657-2.668-1.424-2.187-3.578-4.196-4.129-6.579-.765-3.298-1.984-2.497-3.985-1.441,3.206,3.752,6.288,7.352,9.37,10.95ZM309.491,294.4c-.496-5.746-1.347-11.476-3.265-17.005-.033,5.855,1.009,11.509,3.265,17.005ZM322.237,126.365c-3.195.518-6.244,1.457-9.062,3.054,3.423.127,6.296-1.306,9.062-3.054ZM334.153,164.56c-2.048,4.099-7.397,7.145-5.92,12.632.23,1.061.479,2.173.416,3.245.139,2.75-2.625,5.379-.862,7.951,2.32,3.181,4.381,7.854,8.935,6.41,13.405-3.356,20.56-34.046,20.441-46.378.177-2.028-.817-4.625-2.663-5.368-2.727-.947-4.706,2.863-6.152,4.589-.482.36-.474.349-.61-.185.637-6.003,2.852-11.143,7.641-14.74,5.379-4.831,12.912,1.161,14.153,6.984,1.521,6.072,1.923,12.388.549,18.601-.604,3.187-1.073,6.529-.324,9.731.374,2.824,4.074,3.721,5.767,1.566,4.248-6.003,10.16-11.981,9.794-19.992-.286-1.713-2.411-2.866-3.47-4.831-2.015-1.943-4.927.656-6.845,1.422-3.924,1.862,3.42-6.222,4.201-6.56,18.424-14.83,24.892,13.716,16.201,26.034-.687.881-7.868,12.524-5.196,11.997,6.127-1.491,7.696-8.28,12.734-11.374,4.102-1.558,8.5,2.771,8.364,6.854.061,4.702-2.403,8.652-5.476,12.011-.768,1.245-14.816,14.295-8.3,12.36,3.137-1.084,5.994-4.945,9.514-2.793,4.57,3.112,3.531,9.311.283,12.934-.69.834-1.516,1.516-2.469,2.112-10.232,5.792-16.268,15.198-21.234,25.267-2.433,5.207-5.834,9.506-10.778,12.479-1.571.912-3.123,1.989-4.193,3.451-2.447,3.221-3.614,7.166-5.451,10.484-1.605,1.245-2.001-1.037-1.197-2.391.114-.735,1.521-2.97.959-3.414-1.674,1.008-1.835,4.456-3.739,5.157-5.168-.989-10.118-3.885-15.131-5.781-2.045-1.064-.867-3.326-.286-5.119.718-2.2,1.524-5.64.721-7.724-.812,2.674-1.455,7.605-2.949,10.313-.524.54-1.106.735-1.912.394-5.013-.981-1.416-5.548-1.571-8.954-.089-1.047-.374-.027-.715.936-.643,1.668-.931,3.234-1.754,4.725-.355.502-.956.69-1.333.388-.521-.368-.394-1.256-.105-2.078,1.48-4.234,2.22-9.104,1.239-13.378-4.196-8.189-6.798-17.39-13.527-24.093-5.127-4.935-5.271-12.609-8.577-18.675-.768-1.84-1.594-4.118-1.671-6.092-.333-3.215,2.006-6.138,5.024-8.61,1.014-.912,1.563-1.846,2.239-3.023,3.4-5.961,9.118-9.065,15.129-9.581l.108.108ZM390.905,219.751c-6.166,5.739-8.491,14.536-14.214,20.627-5.814,6.429-14.796,6.302-20.486-.254-.191-.327-.801-.56-.851-.177-.133.388.46.923.709,1.359,5.939,9.081,18.543,5.016,23.42-2.899,4.365-5.792,7.064-12.876,11.443-18.637l-.022-.018ZM327.926,214.732c4.847,7.489,7.078,18.939,17.997,19.156-4.135-1.396-8.073-4.39-10.462-8.158-2.533-3.562-3.564-8.663-7.491-11.041l-.044.043ZM359.126,219.571c2.101-8.25.701-15.572-5.363-21.677,4.398,6.585,5.227,14.053,5.363,21.677ZM359.131,188.454c3.506,5.659,7.411,11.003,10.47,16.882-1.599-6.812-5.626-12.133-10.47-16.882ZM379.188,194.579c1.333-3.766,3.018-7.267,5.495-10.351-3.716,2.555-6.856,8.811-6.535,12.831,2.45-2.214,4.839-4.368,7.474-6.244-2.527.627-4.406,2.267-6.435,3.763ZM405.587,183.155c-8.372,6.981-11.518,10.686-11.687,13.687,3.173-5.432,8.114-8.946,11.687-13.687ZM386.698,179.267c2.289-4.575,4.578-9.154,6.865-13.729-3.206,4.133-5.687,8.616-6.865,13.729ZM383.339,161.024c-2.278,3.705-4.556,7.41-6.834,11.119,3.24-3.099,5.119-7.034,6.834-11.119ZM366.786,170.02c-.277-4.223,1.219-8.369.344-12.54-.482,4.194-1.627,8.367-.344,12.54ZM378.01,216.27c2.852-2.028,5.659-3.996,8.544-5.853-3.284,1.369-6.668,2.599-8.544,5.853ZM326.859,177.514c.042,4.39-.939,8.359-4.592,11.229,4.107-1.854,5.615-5.521,4.592-11.229ZM326.083,169.33c-3.899,1.378-6.396,4.644-6.341,7.74.906-1.489,1.646-3.049,2.708-4.345,1.042-1.269,2.411-2.275,3.633-3.395h0ZM330.426,200.814c1.643-2.968,1.217-4.853-2.164-8.594,1.286,3.139,2.744,5.609,2.164,8.594ZM338.845,195.922c3.683-.346,5.512-1.447,7.072-4.16-2.508,1.48-4.625,3.168-7.072,4.16ZM80.456,216.012c.141.648,1.001,2.705,1.352,3.594.455,1.558,2.347,4.16.028,4.503-1.125-.042-1.513-1.502-1.943-2.563-1.169-2.912-2.175-5.923-4.052-8.563-2.918-4.36-8.716-5.344-11.448-9.847-6.66-9.459-9.766-21.705-20.239-27.891-1.743-1.012-3.497-2.026-4.938-3.422-3.536-3.265-6-8.874-2.217-13.15,1.505-1.896,3.694-2.129,6.041-.878,1.693.801,3.633,2.419,5.401,2.438.078-.1.233-.296.31-.396-1.496-4.226-5.706-7.238-8.719-10.604-4.728-4.424-9.6-13.629-3.012-18.621,6.759-4.252,9.999,6.558,15.19,9.028,5.396,3.636.978-3.572.047-5.632-.884-1.618-1.854-3.057-2.938-4.559-5.191-6.968-4.401-14.746-2.913-22.445,2.724-10.702,15.608-8.264,21.384-1.497,4.653,5.061,2.569,4.014-2.012,2.428-5.243-1.122-7.926,6.551-6.252,10.42,1.776,3.323,9.708,20.455,14.35,14.073,2.09-5.165-.341-11.043-.635-16.414-.762-7.267-.233-14.344,6.152-19.78,5.083-5.279,11.98.934,14.605,6.066,1.186,2.314,2.25,5.562,2.491,8.106-.31.659-1.948-1.978-2.472-2.491-2.378-3.152-2.433-3.284-5.382-.706-2.259,2.156-2.12,5.374-1.752,8.256.962,10.173,9.838,47.528,24.878,40.771.959-.825,1.738-1.92,2.439-2.954,1.316-1.896,3.143-3.827,2.27-6.13-.216-.64-.468-1.405-.69-2.045-.629-1.885-.485-3.805.022-5.709,1.242-4.805-2.181-8.12-5.454-10.869-.272-.365-1.982-1.286-1.372-1.643,7.059.598,13.907,4.595,17.038,11.204,1.003,1.563,2.744,2.47,3.98,3.924,2.286,2.618,2.405,6.344,1.178,9.522-3.19,6.307-4.415,13.595-8.164,19.494-7.119,6.651-10.404,15.972-14.319,24.696-1.94,5.162-.277,10.437,1.555,15.356.388,1.129,1.158,2.267.474,2.885-2.211,1.386-3.395-7.189-4.661-8.48-.241.05-.05,2.004.175,3.023.238,2.126,1.968,4.321,1.441,6.357-.394,1.039-2.602,2.045-3.847,1.74-.948-.338-1.089-1.566-1.538-2.677-.815-2.189-1.53-4.495-2.054-6.79-.249-.962-.463-2.425-.662-2.893-.479.147-.305,1.539-.333,2.414.926,10.223,7.169,10.628-6.014,14.004-2.694.643-5.426,2.533-8.234,2.356-1.341-.457-1.666-2.782-2.4-4.149-.388-.831-1.618-2.747-2.076-2.915l-.061.053ZM57.132,186.699c2.68,4.656,4.775,9.905,8.153,14.164,4.833,6.953,16.129,10.548,21.882,2.977.696-1.076,1.247-2.184-.227-.881-6.116,5.207-14.078,5.083-19.538-1.076-4.287-4.464-5.909-10.863-10.229-15.218l-.042.034ZM99.475,195.378c3.714-.535,6.687-2.269,8.926-5.143,3.132-4.024,3.885-9.264,6.967-13.33-2.198,1.541-3.655,3.631-4.636,5.95-2.322,5.493-5.665,9.974-11.257,12.524ZM85.402,182.331c-.521-7.225.729-14.137,3.811-20.729-5.379,6.164-5.806,13.23-3.811,20.729ZM74.932,166.74c3.256-5.842,7.228-11.215,11.044-16.689-5.099,4.633-9.195,9.927-11.044,16.689ZM76.745,133.55h.984c.795-4.387-.247-8.75-.984-13.114v13.125-.011ZM67.33,159.457c-.715-4.805-2.896-9.273-5.39-10.991,1.505,2.533,2.824,4.972,3.653,7.719-.992.286-1.333-1.277-2.469-.545,1.383,1.256,2.724,2.472,4.207,3.819h0ZM57.362,141.224c-.734-4.495-2.938-8.256-5.856-11.667,1.954,3.888,3.905,7.779,5.856,11.667ZM51.052,159.459c-1.405-4.426-4.537-7.499-8.317-10.022,2.816,3.273,6.067,6.177,8.317,10.022ZM123.907,151.677c-5.737-2.38-6.643-6.671-6.798-11.36-.984,6.169,1.294,10.451,6.798,11.36ZM124.434,139.323c-1.242-3.961-3.414-7.134-7.513-8.616,3.12,2.345,5.872,5.003,7.513,8.616ZM64.676,107.233c-1.244-1.005-2.663-1.402-4.196-.878-2.214.756-4.185.64-5.676-1.372,2.325,4.842,6.815.336,9.871,2.25h0ZM98.076,154.426c2.109,2.092,4.323,3.958,7.524,3.811-2.733-.851-4.703-3.162-7.524-3.811ZM113.468,163.512c-.934-3.332.762-6.119,1.854-9.034-2.389,2.647-3.93,5.468-1.854,9.034ZM62.353,127.876c1.56,2.547,3.12,5.096,4.681,7.643.227-.133.452-.269.679-.402-1.219-2.75-3.004-5.162-5.36-7.241ZM245.954.364c1.466,1.164,4.151,1.616,6.163,1.288,20.281-1.599,41.428,3.081,57.56,15.694.679.537,1.333,1.364.152,1.346-11.714-3.004-27.117.656-30.327,13.846-.432,1.087-1.169,1.433-2.253,1.111-8.142-2.901-18.335.447-21.542,9.226-.28.656-.576,1.23-1.169,1.447-16.151-2.846-28.342,3.786-33.514,19.729-.394,1.333-1.092,1.283-1.552-.116-3.195-11.288-14.25-20.38-25.025-20.658-3.359-.161-7.164.724-9.722-2.118-7.297-8.821-11.978-9.533-22.736-7.576-.538-.211-.887-.831-1.206-1.571-4.038-12.432-17.312-16.485-29.007-13.367-.698.15-1.236.077-1.266-.211,10.362-9.941,25.017-14.455,39.115-16.503,7.045-.968,14.175-.338,21.203-.31,1.319,0,3.129-.884,4.01-1.621-3.885,11.138,4.168,24.984,14.225,30.87,2.638,1.716,3.151-.629,3.115-3.018-.1-2.539-2.173-4.181-2.195-6.839-.582-4.421,1.247-7.824,4.484-2.447,2.666,3.866,8.996,3.958,11.609.027.745-.968,1.907-3.091,3.143-2.613,2.203,1.558,1.302,6.386.54,8.428-.873,1.677-1.732,3.258-1.269,5.188.136.648.31,1.946.956,2.065,1.35-.027,1.677-.524,3.392-1.524,9.17-5.853,16.232-18.847,13.034-29.67l.08-.104ZM257.031,8.974c-1.377-1.846-4.936-2.774-5.881-4.733,4.792-1.666,11.041-.659,15.96-1.386.044-.042-.901-.047-1.35-.072-5.864-.23-12.061-.732-17.781.635-.809.698-.363,2.164-.554,3.142-.166,2.824-1.031,5.532-1.513,8.303,1.472-1.652,1.519-4.739,2.467-6.854.136-.027.407-.037.543-.05,2.627,3.9,3.47,8.66,5.105,12.79.014-5.032-3.265-10.162-4.309-14.909,2.372.058,5.019,2.383,7.272,3.195l.042-.061ZM194.435,14.229c-.313-1.489-.845-3.591-1.139-5.202-.621-1.801.191-4.074-.987-5.673-6.485-1.441-13.785-.682-20.366-.474,1.131.196,3.17.219,4.492.267,4.379.18,9.542-.208,13.66,1.235-1.109,1.23-4.925,2.721-6.041,4.016-.055.474.895.027,1.386-.264,1.588-.651,3.683-2.047,5.243-2.422-.975,3.871-3.237,8.089-3.941,12.149-.183.947-.496,2.719-.424,3.443,1.53-4.493,2.661-10.265,5.399-14.195,1.048,1.854,1.266,5.44,2.666,7.156l.053-.037ZM327.286,396.32c4.828-7.391,9.198-15.031,13.05-23.052,2.547-4.604,10.118-.199,13.737.643-.596-1.045-4.046-2.578-5.579-3.06-2.078-.923-4.758-.288-6.651-1.433-.216-.307-.161-.762-.028-1.269,1.901-5.196,3.467-10.411,4.329-15.888.297-1.428.618-3.126,2.284-3.478.66-.166,1.042-.153.79-.246-3.702-1.076-1.136-6.185-1.33-8.973.366-2.505.141-5.157.937-7.532.244-.426.637-.754,1.114-1.008,2.065-.396,15.833-9.808,15.857-6.709-1.69,2.838-4.756,5.014-5.346,8.578-.61,4.284-6.308,4.908-7.269,9.041-3.545,11.765,9.215,9.491,15.131,4.758,1.438-1.483-.748-2.97-1.632-4.57-.202-.352-.211-.593.014-.632,1.898.341,3.797,2.581,5.77.674,2.317-2.3,2.558-4.411.092-6.77-1.117-1.222-1.632-2.333.604-1.073.959.447,2.037,1.217,2.475.876.518-.383.272-2.087.324-3.218.105-3.137-.729-5.974-3.398-8.045-2.123-1.658-2.658-4.29-2.289-6.815-.066-1.756-1.71-2.74-2.68-4.035-.54-.635-1.192-1.433-.998-1.544,3.988,1.526,9.051,4.598,12.413,7.616,4.201,3.39,5.748,8.455,5.878,13.582.358,1.763.241,8.161,3.306,5.288.377-1.668-.125-4.173-.709-5.908-.876-1.904-2.45-3.705-2.782-5.789-.806-2.419,1.067-4.802,1.084-7.18-.166-.942-.729-1.807-1.117-2.744-3.184-6.524,6.067,4.138,6.255,5.908.457.957.768,2.248,1.039,3.038.277.923.939-.085,1.643.543,2.386,2.489,2.744,6.566,3.558,9.821.939,3.567,2.841,7.987-.405,10.974-.54.659-1.269,1.457-1.322,2.309-.05,1.51,1.195,2.843,1.876,4.221,2.09,3.292,1.749,6.624-1.283,9.223-1.86,1.917-4.947,3.35-5.044,6.424-.022,1.915.995,4.31-.116,5.876-.557,1.023-1.56,1.893-2.627,2.555-2.99,2.168-7.937,2.491-8.555,6.839-.097,2.539-1.979,3.855-4.243,4.3-9.647,3.276-19.657,2.899-29.634,3.93-6.294.69-11.994,4.263-18.418,4.141l-.105-.185ZM357.873,390.045c-4.415-.246-9.143-.859-13.768.831,4.589-.277,9.179-.555,13.768-.831ZM379.856,351.374c1.516.698,2.408,2.581,4.085.806.538-.568.84-1.288.152-1.857-1.549-1.283-2.78-.36-4.237,1.05ZM375.358,372.613c.873,2.832,1.746,5.667,2.619,8.499.011-3.102-.729-5.974-2.619-8.499ZM385.623,359.367c1.07,2.599,2.142,5.202,3.212,7.801-.391-2.877-1.266-5.562-3.212-7.801ZM64.554,301.942c-.931,1.693-3.883,3.356-3.888,5.717-.011,1.558.612,3.215-.23,4.683-1.291,2.628-5.13,4.31-5.168,7.399-.008,1.79-.463,4.146.571,5.582.565.352,1.668-.438,2.472-.552,1.812.191-1.208,2.195-1.297,3.073-.446,1.949,1.314,4.47,2.957,5.57,1.086.624,2.128-.368,3.123-.79.144-.027.43-.045.571-.061.535-.191-.987,1.896-1.128,2.11-1.56,2.229,1.585,3.192,3.123,4.024,3.561,1.693,9.021,3.85,12.158.399,1.405-1.507,1.012-5.468-.205-7.949-1.206-2.24-4.223-3.356-5.695-5.506-1.447-1.544-1.76-3.871-2.386-5.916-.504-.981-1.591-1.658-2.331-2.558-4.085-4.855-.152-3.009,3.029-1.585,3.633,1.33,6.249,4.191,9.988,5.23,1.782.479,3.373,1.705,3.606,3.633.205,3.991.086,8.187.721,12.172-.141,1.131-1.061,1.518-.374,2.142,1.865,2.98,1.272,7.264,2.455,10.675,4.309,17.011,3.617,7.148-7.721,13.595,2.774-.047,7.987-2.409,10.811-.804,4.035,7.574,7.003,16.141,11.958,23.36.563,2.245-2.785.587-3.874.299-13.948-5.154-29.293-2.65-43.202-7.594-1.696-.748-2.713-2.164-2.904-4.104-.139-1.156-.338-2.261-1.172-2.877-4.16-2.744-12.379-3.969-10.395-10.717.535-1.774.452-3.605-1.147-4.742-2.286-1.815-6.404-4.945-6.479-8.142-.394-3.126,3.123-5.218,3.597-8.195-.23-2.037-3.06-3.605-3.306-5.82-.629-2.927,1.089-5.858,1.394-8.682.269-1.647.46-3.594,1.244-5.265,2.02-4.027,5.357-7.386,7.433-11.323,1.472-1.756,7.108-8.827,4.556-1.865-1.458,4.212.069,9.028-1.771,13.072-2.056,2.721-3.506,6.143-2.469,9.443.524.989,3.123.643,2.915-.884-.557-3.882-.144-7.926,1.147-11.451,2.444-7.862,10.329-11.747,17.254-14.874l.061.076ZM86.738,381.035c-4.941-1.732-9.993-.915-15.021-.674,5.005.227,10.013.452,15.021.674ZM51.437,340.241c-1.804.54-3.42-.798-4.52.714-.449.618.025,1.779.89,1.951,1.588.322,2.611-.635,3.63-2.666ZM317.429,67.895c14.799-9.681,7.203-9.179,21.824-.352-.493-3.387-1.804-6.246-2.655-9.348-.319-.997-.743-2.206-.322-3.11,1.99-2.536,5.171-3.827,7.66-5.984.601-.54,2.245-1.407,2.4-1.996-4.412-.886-8.849.64-12.948-.648-1.632-1.541-1.663-3.943-2.48-5.786-.745-1.698-1.23-4.453-2.275-5.865-.105.141-.313.424-.418.566-1.735,3.755-2.181,7.959-4.515,11.099-.219.097-.66.291-.879.391-3.395.444-7.973-.407-11.119.315,11.498,11.928,10.437,3.115,5.609,20.627l.117.091ZM351.458,318.779c2.231-11.85,12.817-26.026,26.125-18.05,5.385,3.25,11.141,6.873,17.545,6.823,8.101.315,16.027-4.598,19.474-11.886,7.399-13.074-5.083-31.466-20.062-23.826-13.225,7.286-3.772,28.39,9.949,19.338,7.635-6.05,1.145-19.43-8.306-14.821-3.957,1.87-5.399,8.65-1.305,10.996.413.177.03-.402-.529-1.166-2.561-3.229-.491-8.411,3.4-9.438,9.996-2.309,12.335,12.621,2.744,14.92-12.274,2.51-14.987-14.954-4.332-19.156,10.104-4.298,20.982,5.717,18.285,16.652-1.84,9.625-11.487,16.702-21.215,15.018-7.61-1.031-12.521-7.166-19.735-8.719-13.358-3.028-22.223,11.57-22.082,23.295l.042.02ZM384.462,99.03c-4.276-15.774-5.224-8.927,6.33-19.13-4.074-.909-8.295.671-12.019-.687-1.882-2.422-2.009-5.643-3.256-8.449-.335-.729-.654-2.541-1.178-2.851-2.162,3.536-2.042,8.123-4.62,11.221-2.541,1.258-5.817.156-8.61.524-1.131.183-3.727-.143-2.514,1.07,2.669,2.433,6.205,3.927,8.175,6.785.382,3.123-2.702,8.179-2.661,11.429,13.311-8.089,6.892-8.287,20.228.183l.124-.093ZM140.724,97.888c10.919-.143,10.631,14.269-.039,14.275-7.505-.524-10.728-9.869-6.332-15.655,2.467-3.982,7.97-5.468,12.54-4.184,14.743,4.479,11.185,26.111-1.713,30.623-20.422,8.057-37.751-16.091-29.908-35.573.394-1.129.859-2.073,1.275-2.932.443-.878.685-2.054.183-1.685-9.104,11.474-6.914,30.31,4.639,39.33,11.185,8.727,27.328,6.114,34.076-5.415,3.4-5.509,3.86-13.307.571-18.778-4.196-8.507-18.479-10.591-23.293-1.333-3.514,5.701-.867,15.001,6.26,16.501,5.171,1.594,11.058-2.832,10.789-8.38.211-4.683-4.67-8.674-9.087-6.876l.039.083ZM72.552,304.796c-.92-5.701.779-10.877,1.654-16.575,3.303-26.769-35.789-30.717-35.096-3.678.721,8.087,8.78,15.068,16.955,13.108,8.403-1.478,12.285-12.648,6.161-18.801-2.993-3.215-8.708-3.303-11.756-.222-2.979,2.835-3.586,8.697-.033,11.44,1.796,1.663,4.664,1.996,6.521.687.222-.206-.274-.217-1.122-.143-3.88.656-6.953-2.051-6.89-5.928-.092-6.593,8.594-9.409,12.776-4.387,6.025,7.127-1.416,17.595-10.113,15.597-8.566-1.402-12.851-12.047-8.594-19.413,7.494-14.139,28.633-6.593,28.885,8.126.554,6.593-2.483,13.934.596,20.198l.056-.008ZM125.783,106.239c-4.429-27.869,31.086-31.859,40.287-7.608,7.427,16.49,2.253,35.412-4.307,51.391,6.909-10.093,10.631-23.08,10.916-35.575,1.189-20.181-17.379-43.141-38.666-31.566-7.754,4.604-11.964,15.049-8.306,23.387l.075-.03ZM88.908,44.555c-.011.13-.033.396-.044.526.784.904,2.234,1.821,3.226,2.666,5.853,3.375,2.261,5.183,1.616,10.342-.41,2.433.43,1.336,1.765.426,7.194-5.609,5.177-4.091,12.283.476.413.235,1.167.928,1.305.754-.391-2.409-1.228-4.633-1.848-6.959-1.136-2.774,1.458-3.908,3.364-5.21,1.045-.87,3.029-2.06,3.794-2.991-3.104-.535-6.277.402-9.251-.413-1.81-1.536-1.824-4.556-2.913-6.656-.297-.563-.621-2.187-1.006-2.367-3.752,8.819-1.133,9.547-12.089,9.311l-.202.093ZM417.565,306.35c8.514-5.812,12.784-17.836,11.703-27.763-.765-17.033-18.377-28.547-34.401-23.892-2.968.834-7.059,2.7-9.295,4.537.033.058.407-.058.948-.254,29.637-12.918,53.758,19.072,31,47.242l.044.13ZM54.455,203.986c-1.247,0-3.17-.037-4.462-.034-1.391-.116-3.345.476-4.44-.537-1.333-.817-2.785-11.374-3.996-5.823-1.585,5.149-2.09,6.748-8.674,6.438-.734-.055-1.959-.027-1.228,1.119,11.922,4.221-2.386,17.67,7.253,10.42.987-.621,2.026-1.821,3.24-2.023,2.123.08,4.434,2.824,6.468,3.824.815.378.881.585.804-.421-2.904-8.618-.806-7.931,5.052-12.817l-.017-.146ZM192.919,71.55c-5.823,1.383-9.253-1.526-10.237-7.235-.1-.058-.183,1.1-.322,1.579-.607,4.34-4.454,6.654-8.627,5.836-.244-.027-.729-.066-.973-.089-.089.069,1.039.543,1.449.84,4.395,2.353,4.143,7.116,2.231,11.077.055.092.784-.804,1.172-1.114,2.99-3.192,7.444-2.785,10.379.238.188.156.568.465.759.621-2.453-5.185-1.305-9.306,4.193-11.706l-.025-.047ZM3.238,351.522c-6.368-12.738,2.993-27.388,17.362-21.284,13.995,6.881,7.782,29.184-8.056,26.508-3.193-.41-5.482-2.084-5.656-5.559-.302-2.417-.094-5.72,1.757-7.1.881,2.034,1.186,4.575,3.436,5.493.923.463,1.97.735,2.954.788,2.009.172,3.835-1.65,1.045-1.034-4.919,1.291-9.325-6.244-3.362-7.682,1.266-.217,1.51-.775.064-1.097-1.147-.219-2.672.545-3.708,1.475-1.067,1.023-2.214,1.296-2.716,2.489-.845,1.949-.867,4.165-.615,6.254.05.92.51,1.862-.313,2.269-.491-.027-1.488-.857-1.466-.656,1.821,2.752,4.412,5.451,6.914,7.727.815.582,2.001,1.838,2.539,1.693-.247-.391-1.333-1.333-2.02-2.045-3.101-3.279-.587-2.391,1.896-2.031,18.565,1.637,22.018-25.077,4.65-29.651-12.981-3.752-23.42,13.965-14.782,23.474l.077-.028ZM394.718,374.693c7.976-1.294,15.306,2.129,23.235.923,15.785-1.97,19.981-25.167,3.653-29.165-9.375-2.525-18.388,8.571-12.621,16.935,2.625,3.866,8.691,5.39,12.582,2.605.87-.571,2.059-2.12,1.763-2.184-8.3,6.839-18.385-.748-14.239-10.551,2.877-6.077,10.678-7.547,15.993-4.295,13.901,10.889.829,27.993-14.142,25.378-5.321-.537-11.185-2.073-16.226.288l.003.066ZM30.602,300.787c-6.457-14.721,1.599-32.873,17.069-37.606.995-.399,1.979-.579.441-.436-18.834,1.375-28.132,23.263-17.543,38.056l.033-.014ZM28.419,252.855c-4.301,1.15-6.355-1.269-7.311-5.027-.31,3.356-2.519,5.576-5.936,5.457-.452.053-1.552-.089-1.452.058.79.447,1.79.97,2.367,1.576,2.151,1.854,1.089,5.26.479,7.341,3.547-4.218,5.809-2.631,9.234.208-.047-1.737-.654-3.75-.227-5.302.358-1.455,1.946-3.065,2.893-4.181l-.047-.131ZM415.251,236.931c-2.705,0-4.85,1.984-4.986,4.631-.139,2.647,2.117,5.016,4.864,5.107,2.777.092,5.096-2.065,5.152-4.792.055-2.66-2.264-4.942-5.03-4.947h0ZM23.042,376.919c4.733,1.782,3.669,4.913,2.297,8.137,2.206-.651,3.143-2.912,4.897-2.517,1.472.333,2.713,1.679,4.054,2.578-2.27-3.838-.635-6.194,2.982-8.306-4.37.984-6.355-.978-7.222-4.855-.709,3.946-2.591,5.831-7.009,4.963ZM401.104,390.648c-4.016,1.613-5.823-1.031-6.818-4.593-.479-1.346-.504-1.94-.856-.371-.629,3.893-2.749,5.8-6.554,5.246,4.332,2.158,3.553,5.011,2.167,8.674,3.018-1.621,4.517-4.62,7.682-1.336.374.244,1.297.635,1.405.333-1.549-3.744-.371-6.008,3.021-7.928l-.047-.026ZM144.185,156.109c-2.203.208-3.495,1.555-3.675,3.758-.177,2.176,1.774,4.123,3.993,4.054,2.444-.077,3.589-1.539,3.838-3.503.003-2.444-2.062-4.509-4.157-4.31h0ZM282.083,54.008c.022,2.414,1.516,3.844,3.822,3.811,2.289-.034,3.741-1.444,3.711-3.9-.033-2.456-1.494-3.589-3.963-3.861-2.211.291-3.592,1.56-3.57,3.949h0ZM90.031,401.202c.061,2.222,1.46,3.589,3.666,3.541,2.217-.045,3.558-1.502,3.486-3.71-.069-2.181-1.369-3.472-3.822-3.528-2.151.175-3.392,1.475-3.331,3.697h0ZM417.712,330.406c0-2.148-1.297-3.605-3.628-3.578-2.126.027-3.398,1.192-3.478,3.356-.086,2.3,1.164,3.522,3.328,3.769,2.375-.083,3.777-1.359,3.777-3.547h0ZM343.202,288.468c-.721.083-1.347.143-.989,1.28.912,2.882,1.666,5.815,2.644,9.306,1.599-3.935,2.954-7.267,4.57-11.241-2.439.252-4.334.436-6.224.654h0ZM75.908,74.428c.014-2.115-1.286-3.433-3.353-3.48-1.932-.045-3.201,1.114-3.303,3.145-.108,2.137.928,3.398,3.215,3.605,1.979-.141,3.428-1.076,3.442-3.271h0ZM319.873,226.898c.011-1.931-1.106-3.273-3.154-3.3-1.946-.027-2.913,1.192-2.94,3.081-.028,1.935,1.02,2.949,2.857,3.11,1.976-.042,3.226-1,3.237-2.89h0ZM335.514,402.838c-1.965-.095-2.968,1.208-3.043,3.032-.072,1.754.995,2.943,2.71,3.035,1.818.1,3.021-.912,3.226-2.848-.061-1.893-.998-3.126-2.893-3.218h0ZM19.251,311.101c-.017-1.851-1.128-2.988-3.048-2.993-1.815,0-2.785,1.1-2.857,2.824-.08,1.899,1.048,2.912,2.857,3.261,1.829-.249,3.065-1.206,3.048-3.093h0ZM83.515,286.315c-1.951-.119-3.043,1.169-3.048,2.97-.006,1.671,1.073,2.922,2.846,2.857,1.641-.058,2.76-1.064,3.015-2.848-.219-1.663-1.081-2.874-2.813-2.98h0ZM151.487,53.037c.017-1.835-1.012-2.835-2.766-2.874-1.779-.042-2.821.995-2.863,2.785-.042,1.812,1.012,2.732,2.799,2.922,1.677-.185,2.813-.97,2.83-2.832ZM348.662,104.251c-1.726-.027-2.661,1.008-2.697,2.621-.039,1.74.867,2.899,2.749,2.885,1.677,0,2.519-1.039,2.838-2.618-.288-1.643-1.014-2.869-2.891-2.888h0ZM297.423,177.934c.1,1.544,1.042,2.428,2.561,2.342,1.496-.083,2.419-1.023,2.333-2.578-.086-1.558-1.106-2.256-2.572-2.345-1.599.156-2.422,1.012-2.322,2.581ZM211.744,77.46c-.097-1.375-.948-1.97-2.239-1.88-1.289.092-2.076.881-2.054,2.164.022,1.419.873,2.181,2.309,2.234,1.502-.194,2.084-1.106,1.984-2.52h0ZM337.402,86.309c.003-1.2-.757-2.076-2.103-2.115-1.394-.042-2.034.79-2.062,2.068-.03,1.309.704,2.037,2.106,2.179,1.183-.161,2.056-.909,2.059-2.131ZM126.967,190.331c-1.369-.064-2.259.801-2.239,2.229.017,1.306.895,2.037,2.123,2.018,1.217-.027,2.031-.727,2.098-2.118-.003-1.272-.79-2.073-1.982-2.129ZM18.262,348.918c6.521-3.369,2.638-13.288-4.193-12.712-2.799.217-5.645,1.637-6.734,4.179-.576,1.047-.843,4.953.083,1.549,4.747-10.426,19.075-2.189,10.772,6.939l.072.045ZM185.101,390.117c5.194,2.237,10.667,3.189,16.342,3.506-5.448-1.169-10.897-2.34-16.342-3.506ZM244.853,390.144c-4.922,1.139-9.841,2.277-14.763,3.417,5.069-.507,10.129-1.05,14.763-3.417ZM252.378,215.005c-2.455.055-4.246-1.629-4.176-3.731.069-2.106,1.189-3.453,3.328-3.486,2.4-.037,3.725,1.468,3.841,3.742.114,2.137-1.247,3.242-2.993,3.475h0ZM253.652,211.491c.078-.976-.477-1.51-1.341-1.627-.901-.122-1.558.363-1.638,1.286-.089,1.023.491,1.804,1.488,1.835.787.027,1.491-.502,1.491-1.494ZM148.148,284.088c-1.71,7.494-.698,14.502,3.666,20.809-3.852-6.516-3.683-13.677-3.666-20.809ZM237.676,200.208c-.773,7.748-2.777,15.966-5.074,23.467-.879,2.935-3.991,4.115-6.842,3.483-6.732-1.346-13.485-3.081-19.945-5.072,3.755.378,12.352,2.558,17.664,3.491,4.703,1.05,7.544.402,8.907-4.572.831-3.334,2.067-7.114,2.278-10.401-.183-.526-.989-.679-1.84-.836-.984-.219-1.821-.494-2.71,0-2.45,2.533-1.001,8.541-4.886,10.131-1.064.482-2.408.455-3.617.257-6.69-1.413-12.912-2.904-19.463-4.3-4.154-.613-7.067-2.79-5.867-7.206,1.386-6.687,2.866-12.947,4.42-19.468.546-3.311,2.489-6.283,6.249-5.332,7.144,1.43,14.062,3.134,21.198,4.823,1.491.373,3.392,1.003,4.157,2.309,1.718,2.821-1.017,7.097-.502,10.01.604,1.238,3.242,2.388,4.725,1.245.599-.505.945-1.912,1.097-2.06l.05.031ZM214.671,203.212c-.103-7.865,8.137-2.599,12.535-2.655,2.516-.127,2.175-2.336,2.735-4.892.222-1.668.161-1.505.105-2.258-.236-.84-.635-1.491-1.574-1.759-7.064-1.705-14.001-3.057-21.068-4.67-1.53-.333-3.06.045-3.497,1.713-1.682,6.854-3.134,13.56-4.786,20.407-.249,1.283-.208,2.71,1.197,3.258,2.788.95,5.709,1.3,8.55,2.047,4.52.934,9.104,2.367,13.602,2.821,3.107.166,3.218-3.392,3.916-5.815.734-2.919-.042-3.306-2.871-3.847-2.661-.831-5.823-.886-8.239-2.217-.502-.438-.629-1.087-.629-1.655l.025-.48ZM218.487,200.756c-.881-.357-1.222.468-1.441,1.621-.213,1.142.161,1.547,1.316,1.804,4.606,1.02,9.19,2.131,13.757,3.311,1.15.296,1.768.055,1.982-1.058.186-.962.549-1.996-.998-2.336-4.697-1.034-9.384-2.139-14.616-3.342ZM221.466,182.01c7.056,2.3,20.674,1.288,17.263,12.421-.128.516-.194,1.084.069,1.571,5.823-13.486-8.126-12.662-17.332-14.015v.023Z" fill="#FFFFFF" stroke-width="0"/></svg>